HIERARCHY
ROOT Hips
{
	OFFSET -0.179506 -22.333345 2.821913
	CHANNELS 6 Xposition Yposition Zposition Zrotation Yrotation Xrotation 
	JOINT LeftUpLeg
	{
		OFFSET 6.951974 -9.140623 -0.681533
		CHANNELS 3 Zrotation Yrotation Xrotation
		JOINT LeftLeg
		{
			OFFSET 3.427654 -37.519855 -0.449580
			CHANNELS 3 Zrotation Yrotation Xrotation
			JOINT LeftFoot
			{
				OFFSET -1.359570 -39.796059 -4.369333
				CHANNELS 3 Zrotation Yrotation Xrotation
				JOINT LeftToe
				{
					OFFSET 2.635814 -5.579078 11.928840
					CHANNELS 3 Zrotation Yrotation Xrotation
					End Site
					{
						OFFSET 0.000000 0.000000 0.000000
					}
				}
			}
		}
	}
	JOINT RightUpLeg
	{
		OFFSET -6.767048 -9.052170 -0.431982
		CHANNELS 3 Zrotation Yrotation Xrotation
		JOINT RightLeg
		{
			OFFSET -3.829005 -38.256897 -0.885003
			CHANNELS 3 Zrotation Yrotation Xrotation
			JOINT RightFoot
			{
				OFFSET 1.577377 -39.841461 -4.231180
				CHANNELS 3 Zrotation Yrotation Xrotation
				JOINT RightToe
				{
					OFFSET -2.537174 -4.814398 12.334795
					CHANNELS 3 Zrotation Yrotation Xrotation
					End Site
					{
						OFFSET 0.000000 0.000000 0.000000
					}
				}
			}
		}
	}
	JOINT Spine
	{
		OFFSET -0.253288 10.896323 -2.669631
		CHANNELS 3 Zrotation Yrotation Xrotation
		JOINT Spine1
		{
			OFFSET 0.548704 13.518043 0.109247
			CHANNELS 3 Zrotation Yrotation Xrotation
			JOINT Spine2
			{
				OFFSET 0.145701 5.292222 2.542457
				CHANNELS 3 Zrotation Yrotation Xrotation
				JOINT Neck
				{
					OFFSET -0.277840 21.387037 -4.285703
					CHANNELS 3 Zrotation Yrotation Xrotation
					JOINT Head
					{
						OFFSET 0.515184 6.496960 5.134897
						CHANNELS 3 Zrotation Yrotation Xrotation
						End Site
						{
							OFFSET 0.000000 0.000000 0.000000
						}
					}
				}
				JOINT LeftShoulder
				{
					OFFSET 7.884473 12.174932 -3.408961
					CHANNELS 3 Zrotation Yrotation Xrotation
					JOINT LeftArm
					{
						OFFSET 9.097692 3.046888 -0.886815
						CHANNELS 3 Zrotation Yrotation Xrotation
						JOINT LeftForeArm
						{
							OFFSET 25.961220 -1.277207 -2.745643
							CHANNELS 3 Zrotation Yrotation Xrotation
							JOINT LeftHand
							{
								OFFSET 24.923361 0.898606 -0.117091
								CHANNELS 3 Zrotation Yrotation Xrotation
								End Site
								{
									OFFSET 0.000000 0.000000 0.000000
								}
							}
						}
					}
				}
				JOINT RightShoulder
				{
					OFFSET -8.175920 11.883285 -3.861528
					CHANNELS 3 Zrotation Yrotation Xrotation
					JOINT RightArm
					{
						OFFSET -9.601238 3.255117 -0.914307
						CHANNELS 3 Zrotation Yrotation Xrotation
						JOINT RightForeArm
						{
							OFFSET -25.374195 -1.332924 -2.140099
							CHANNELS 3 Zrotation Yrotation Xrotation
							JOINT RightHand
							{
								OFFSET -25.529810 0.777228 -0.555919
								CHANNELS 3 Zrotation Yrotation Xrotation
								End Site
								{
									OFFSET 0.000000 0.000000 0.000000
								}
							}
						}
					}
				}
			}
		}
	}
}
MOTION
Frames: 18
Frame Time: 0.033333
-24.790218 194.201935 80.300163 153.154134 3.505341 97.138556 7.642875 8.352671 20.083498 -0.344844 11.021804 25.606740 2.487429 24.973631 -32.676118 nan nan nan -5.497700 13.361134 -62.916176 10.320576 -10.792583 63.104346 -0.871612 4.380458 -11.146981 nan nan nan -4.630863 -22.096016 16.290583 7.111051 -12.494408 2.918912 -0.072984 -12.176541 -3.621855 -7.793411 18.946370 -1.758042 -0.699001 21.451260 15.003249 -20.286039 -9.469811 8.109386 -58.597122 -6.666436 20.727288 177.472920 -78.018574 -156.732578 -21.737697 -23.704426 -14.419748 17.890166 1.399851 -1.514610 57.702973 -3.696594 21.963646 171.316556 57.922842 171.277879 16.479601 31.809508 -49.710183 
-24.739443 194.286789 80.153961 153.215772 3.458626 97.143425 7.726325 8.087148 19.841995 -0.442488 10.678199 26.440229 2.369490 24.598817 -32.857566 nan nan nan -5.796700 13.102177 -62.649858 10.451960 -10.907135 62.900605 -0.489389 5.120887 -12.015195 nan nan nan -4.197863 -21.529410 15.896954 6.995557 -12.073290 3.179640 -0.107403 -12.288637 -3.461564 -7.583480 18.792688 -1.080786 -1.334019 20.627924 14.431739 -20.184469 -9.212249 8.113567 -57.696026 -5.679857 20.446714 -179.978416 -77.909474 -157.905030 -19.759008 -25.128881 -13.408954 18.113759 1.592919 -1.442559 57.419998 -4.170040 21.566727 171.268926 57.999659 171.693234 15.780497 31.916122 -49.365813 
-24.685841 194.382706 80.001335 153.352211 3.355015 97.078342 7.812683 7.945462 19.772252 -0.668468 10.225172 26.953140 2.381076 24.671198 -32.924748 nan nan nan -5.941213 12.828280 -62.257936 10.765344 -10.755231 62.688215 -0.437131 5.357728 -13.089486 nan nan nan -3.985084 -20.964635 15.632967 7.004406 -11.741430 3.426921 -0.113769 -12.297258 -3.308807 -7.421677 18.333198 -0.754245 -1.692753 20.152340 14.444493 -19.668431 -8.680511 8.099439 -57.821404 -5.376597 20.236822 -179.881520 -78.059889 -158.278097 -19.437631 -24.497414 -14.053037 18.206896 1.455415 -1.405940 57.195871 -4.134330 21.454791 171.238304 58.159920 171.613869 15.662955 31.408107 -49.115124 
-24.587175 194.436646 79.866600 153.740180 3.285239 97.087702 8.176543 7.932731 19.502141 -0.881292 9.689816 27.569547 2.218227 24.665604 -33.042052 nan nan nan -5.981397 12.497885 -61.879091 10.970903 -10.717840 62.425893 -0.603024 5.326066 -14.219131 nan nan nan -3.657361 -20.464839 15.245193 7.027957 -11.541313 3.593133 -0.087837 -12.293029 -3.151462 -7.425350 17.814591 -0.556330 -2.020362 19.713988 14.790942 -19.568799 -8.081987 8.417063 -57.772505 -4.980873 19.708738 -179.515533 -77.979511 -159.789142 -18.715597 -23.563802 -14.238852 18.392051 1.154597 -1.300751 56.777958 -3.930293 21.028112 170.569800 58.315452 170.864908 15.338383 30.836282 -48.571821 
-24.446104 194.382446 79.750244 154.618988 3.242075 97.099616 8.893903 7.887060 18.973066 -0.900841 9.156470 28.518455 1.990151 24.276844 -33.264430 nan nan nan -5.947867 11.927556 -61.466252 11.001342 -11.032207 62.095554 -0.960797 4.979971 -15.112315 nan nan nan -3.660936 -20.403613 15.202999 7.312019 -11.535401 3.545196 0.068558 -12.173837 -2.871413 -7.643217 17.428044 -0.530650 -2.247756 19.523434 14.974779 -19.421228 -7.579406 8.665581 -57.152190 -4.486961 19.064684 -179.803190 -77.582269 -159.636422 -18.298438 -23.644274 -15.173522 18.522122 0.943115 -1.302517 56.450982 -3.582436 20.747614 170.081351 58.458908 170.587899 14.959188 30.768631 -48.741791 
-24.408331 194.425934 79.604782 155.054256 3.177784 97.024358 9.231493 8.007991 18.950975 -0.939884 8.942886 28.837833 1.916180 24.101737 -33.529765 nan nan nan -5.917920 11.553878 -61.166677 10.997242 -11.318204 62.055082 -1.195677 4.760049 -15.772738 nan nan nan -3.509327 -20.316367 15.182009 7.442391 -11.359383 3.586578 0.108527 -12.018192 -2.753100 -7.556909 17.247888 -0.387918 -2.724338 19.296598 14.877030 -18.999946 -7.145822 8.627854 -56.848973 -3.929229 18.517709 178.351035 -77.042345 -157.675746 -18.963401 -23.625860 -15.999927 18.528685 1.090591 -1.325586 56.320147 -3.283054 20.739760 170.428637 58.583940 171.148463 15.160608 30.808977 -48.785174 
-24.390879 194.466232 79.461090 155.515057 3.039897 97.076423 9.426480 8.147553 18.772630 -0.905372 8.879958 29.018698 1.875108 23.997440 -33.844500 nan nan nan -6.069207 11.122499 -61.239870 10.880301 -11.648317 62.299153 -1.418887 4.725319 -16.086115 nan nan nan -3.300440 -20.269288 15.027548 7.521016 -11.202295 3.647724 0.130033 -11.805639 -2.832052 -7.344649 17.048623 0.120621 -3.368842 18.867792 14.455122 -18.727294 -6.689135 8.414094 -56.580136 -3.452678 17.781767 176.220170 -76.803163 -155.888366 -20.562755 -23.800303 -16.138881 18.638298 1.454790 -1.388149 55.966383 -3.257580 20.786106 170.977180 58.754675 171.780667 15.872468 30.799343 -48.081972 
-24.379404 194.491074 79.333893 155.941762 2.801497 97.217969 9.435957 8.203494 18.563368 -0.922272 8.906207 28.965136 1.968432 24.010005 -34.063982 nan nan nan -6.368047 10.706424 -61.620412 10.612957 -11.878058 62.791428 -1.321839 4.833957 -16.055460 nan nan nan -3.161058 -20.196305 14.769604 7.586517 -11.092553 3.699978 0.080452 -11.594680 -2.951442 -7.201576 16.799368 0.345692 -3.599498 18.521193 14.593360 -18.417637 -6.067114 8.214955 -56.291137 -3.064069 17.139074 173.777533 -76.589936 -154.042899 -22.097960 -23.690378 -16.732618 18.816217 1.630004 -1.379826 55.531859 -2.910657 20.871861 171.445894 59.031805 172.155174 16.752694 30.690430 -47.179048 
-24.351681 194.478806 79.280334 156.314394 2.645640 97.182668 9.559800 8.307578 18.650931 -0.945850 8.947239 28.639959 2.000955 23.994292 -34.171552 nan nan nan -6.547203 10.436675 -61.833295 10.378930 -11.935833 63.239319 -1.013033 5.030533 -15.756040 nan nan nan -3.079352 -20.068655 14.860285 7.667360 -10.958617 3.579473 0.035329 -11.376237 -2.955673 -7.026508 16.615763 0.590925 -3.958324 18.213447 14.460965 -18.281829 -5.527665 8.309138 -55.933960 -2.543901 16.600980 171.221778 -76.032228 -152.465905 -22.073620 -23.038174 -16.926002 19.054533 1.864127 -1.279506 55.061820 -2.419919 20.823069 171.877452 59.199285 172.528090 17.073498 30.176077 -46.053167 
-24.227760 194.412643 79.293716 156.522781 2.729412 96.836999 10.130025 8.616856 19.244510 -1.061878 9.011751 28.077312 1.861472 23.806758 -34.300787 nan nan nan -6.385691 10.636763 -61.673729 10.192580 -11.884025 63.504038 -0.745482 5.026733 -15.485935 nan nan nan -3.132633 -19.847059 15.389592 7.811211 -10.670130 3.534099 0.083880 -11.097847 -3.023253 -6.594694 16.804544 0.879675 -4.493265 17.577332 14.341091 -18.140048 -5.048087 8.356266 -55.544161 -2.251362 16.049813 168.730481 -75.501980 -150.586439 -21.657762 -22.878378 -15.897555 19.332607 2.117564 -1.208066 54.662890 -1.972829 20.796442 172.307551 59.356196 173.189950 16.823021 29.710623 -45.227449 
-24.258039 194.383682 79.272987 157.265087 2.540190 96.665315 10.170975 8.604124 19.397206 -0.777314 8.962918 27.720912 1.952008 23.788302 -34.482613 nan nan nan -6.641612 10.149044 -61.592114 10.128930 -11.985463 63.737447 -0.518422 4.978818 -15.401370 nan nan nan -2.908748 -19.873519 15.582520 7.773532 -10.645100 3.469365 0.008272 -10.916903 -2.985623 -6.424605 16.666268 0.853966 -4.788020 17.112134 14.284233 -17.821543 -4.714878 8.174669 -55.299659 -2.017736 15.564514 166.052691 -74.909086 -148.419656 -21.185809 -22.488382 -14.929623 19.348792 2.328700 -1.223311 54.531805 -1.493773 20.678638 172.914740 59.574667 173.705707 16.758678 29.373781 -44.565569 
-24.207981 194.328033 79.241966 157.902250 2.360271 96.482327 10.259601 8.606843 19.600362 -0.595442 8.927407 27.293664 1.993558 23.891303 -34.615515 nan nan nan -6.800994 9.959560 -61.500172 9.976757 -12.033142 63.951129 -0.358166 4.673278 -15.492167 nan nan nan -2.865891 -19.824771 15.755937 7.726251 -10.477077 3.334203 -0.037789 -10.731519 -2.774543 -6.246703 16.474326 0.821364 -4.964213 16.662235 14.298428 -17.395340 -4.324804 7.851659 -54.879329 -1.908293 15.352230 163.769286 -74.465376 -146.131391 -20.216461 -22.379978 -15.004145 19.502069 2.374985 -1.312300 54.380780 -1.033293 20.617248 173.727403 59.813839 174.716411 16.461415 29.059570 -44.348851 
-23.998877 194.210083 79.186768 158.224115 2.379151 96.400560 10.768832 8.849065 19.809901 -0.672034 9.084225 26.821050 1.750004 23.823810 -34.815784 nan nan nan -6.715369 10.425889 -61.575366 9.615593 -12.029725 64.128414 -0.299767 4.214024 -15.735660 nan nan nan -2.999951 -19.734811 15.563665 7.698691 -10.006725 3.687664 -0.004329 -10.527872 -2.654781 -5.731481 16.693079 1.035031 -5.371172 15.788535 14.210502 -17.143534 -3.531202 7.454476 -54.188162 -2.127391 14.937222 161.736350 -73.625557 -143.822722 -21.405455 -22.280891 -12.960950 19.814358 2.305867 -1.318952 54.232283 -0.476200 20.662660 174.691231 60.161093 176.330614 16.778173 29.058076 -43.761950 
-23.892162 194.123001 79.187141 159.019661 2.285017 96.242356 11.210009 9.010657 19.914493 -0.605995 9.003154 26.437179 1.543023 23.735793 -35.038488 nan nan nan -6.723073 10.294198 -61.340360 9.276049 -12.081011 64.200785 -0.386426 3.938651 -16.242644 nan nan nan -2.936552 -19.672941 15.502142 7.676545 -9.877434 4.016923 0.013391 -10.411419 -2.713003 -5.326308 16.779294 1.281701 -5.705416 15.045031 14.185430 -17.043435 -2.777342 7.195570 -53.593484 -2.562310 14.417680 160.063916 -72.684559 -142.577328 -22.574937 -22.234208 -10.718587 19.899189 2.231814 -1.362521 54.164642 0.089361 20.539394 175.406347 60.500529 177.087716 17.257260 29.278104 -43.196412 
-23.773272 194.034058 79.214005 159.955574 2.112210 96.115376 11.714548 9.135784 19.945081 -0.673459 8.942446 26.104262 1.509080 23.568890 -35.213738 nan nan nan -6.760195 10.013524 -61.029138 8.848305 -12.106781 64.236656 -0.521457 3.711922 -16.824336 nan nan nan -2.994594 -19.589455 15.435219 7.730539 -9.830406 4.323133 0.109305 -10.252483 -2.857212 -5.005438 16.596693 1.524838 -5.922922 14.489572 14.324152 -16.794639 -2.329115 7.013884 -53.330193 -2.749248 14.194848 157.990470 -71.578610 -141.114711 -22.918974 -21.926322 -9.866237 19.848603 2.116061 -1.473759 54.189920 0.539713 20.372019 176.327664 60.781805 177.752055 17.524697 29.233624 -43.148660 
-23.642767 193.938629 79.262695 160.959637 1.896809 96.050894 12.176299 9.229369 19.858215 -0.717617 8.942371 25.787825 1.504927 23.418825 -35.288222 nan nan nan -6.833337 9.706192 -60.718725 8.400081 -12.075786 64.223476 -0.684309 3.396145 -17.452502 nan nan nan -3.058513 -19.421935 15.311112 7.817539 -9.767173 4.588183 0.235953 -10.081716 -3.018184 -4.894245 16.198679 1.749368 -6.067542 14.046426 14.317273 -16.563268 -2.023898 6.888096 -53.044975 -3.031104 14.149654 156.089003 -70.438599 -139.434601 -22.861423 -21.325789 -9.518941 19.801906 1.798359 -1.677643 54.174051 0.907802 20.195399 177.420135 60.935751 178.754630 17.635295 28.913653 -43.330146 
-23.518917 193.824615 79.332047 162.052903 1.706350 96.089214 12.601586 9.308654 19.568191 -0.643673 8.939292 25.512873 1.390328 23.196408 -35.323156 nan nan nan -6.927271 9.362637 -60.423391 7.923450 -12.075503 64.062034 -0.770066 3.063404 -18.098385 nan nan nan -2.960610 -19.210917 15.048616 7.912437 -9.725429 4.820731 0.336142 -9.949154 -3.212614 -5.032136 15.762637 2.036812 -5.973926 13.573074 14.208216 -16.483479 -1.895056 6.792993 -52.480956 -3.331850 14.240555 154.276543 -69.135650 -137.372564 -23.070247 -21.137126 -9.228876 19.839301 1.491925 -1.890866 53.933418 1.099824 19.958686 178.368319 60.908773 -179.896321 17.588588 28.792973 -42.851869 
-23.426601 193.664444 79.411011 163.346080 1.446690 96.128197 13.019362 9.383925 19.125125 -0.622718 8.661140 25.309412 1.297493 23.026440 -35.361455 nan nan nan -7.160118 8.893445 -60.083271 7.538274 -12.135188 63.771210 -0.872274 2.650704 -18.647865 nan nan nan -2.907481 -18.972739 14.708986 8.007860 -9.809595 5.183484 0.386220 -9.842997 -3.466697 -5.142873 15.113703 2.368524 -5.767134 13.331810 14.266023 -16.657818 -2.164992 6.738749 -50.889995 -3.561419 14.453814 152.879256 -67.746011 -134.702924 -22.136434 -21.366323 -10.520105 20.000381 1.410453 -2.226665 53.656094 1.131885 19.939865 179.527445 60.899051 -177.721350 16.883181 28.560081 -42.552040 
